<?xml version="1.0" encoding="UTF-8"?>
<svg version="1.1" xmlns="http://www.w3.org/2000/svg" width="4000" height="3792">
<path d="M0 0 C93.81606296 -1.14832009 187.10779926 7.50295241 539.47631836 138.03320312 C540.38446289 138.55881836 541.29260742 139.08443359 542.22827148 139.62597656 C571.18585383 156.443729 599.17678347 174.64947717 626.47631836 194.03320312 C627.63043213 194.85087158 627.63043213 194.85087158 628.80786133 195.68505859 C645.2738257 207.37522609 661.11707253 219.80631701 676.73217773 232.60498047 C678.3054076 233.8932496 679.88280084 235.17643038 681.46069336 236.45898438 C691.53269783 244.65340419 701.43779598 252.99406316 711.00366211 261.77539062 C713.09499775 263.68501463 715.208907 265.55651564 717.35131836 267.40820312 C726.41842675 275.30954044 735.12107808 283.5485993 743.52709961 292.14648438 C745.70853281 294.33664027 747.99122225 296.35947154 750.33959961 298.36914062 C754.6449674 302.09706464 758.49570897 306.16086982 762.35131836 310.34570312 C766.84220625 315.17407163 771.34363226 319.96522862 776.03881836 324.59570312 C779.37806143 327.89611779 782.52349891 331.28234721 785.57397461 334.84960938 C787.48346534 337.04140675 789.44697658 339.17705177 791.42431641 341.30761719 C796.25898522 346.51863747 800.84622431 351.85532914 805.30444336 357.39648438 C807.41388185 359.95740341 809.60519484 362.40443767 811.85131836 364.84570312 C815.83387117 369.22099903 819.49449906 373.78049579 823.11743164 378.4519043 C826.06407381 382.24832528 829.06425785 385.99129749 832.11791992 389.70214844 C849.02209634 410.26017234 864.5707378 431.99197229 879.47631836 454.03320312 C879.94360352 454.72317383 880.41088867 455.41314453 880.89233398 456.12402344 C905.82522349 493.0172774 928.27113382 531.35961968 948.47631836 571.03320312 C948.86625977 571.79648926 949.25620117 572.55977539 949.65795898 573.34619141 C951.59082927 577.13709332 953.49046632 580.94288207 955.36254883 584.76416016 C956.18587668 586.44149664 957.01371133 588.11662266 957.84399414 589.79052734 C972.22139311 618.8194017 984.47659065 648.65164988 995.72821045 679.01605225 C996.44958677 680.96112575 997.17479184 682.90473425 997.90063477 684.84814453 C1030.00493795 771.25302154 1048.04857517 862.77037249 1057.97900391 1010.96044922 C1058.03881326 1013.53298373 1058.10398825 1016.10534402 1058.16967773 1018.67773438 C1060.11681539 1097.90022172 1054.49345943 1177.60031698 1043.47631836 1256.03320312 C1043.26649323 1257.52868683 1043.26649323 1257.52868683 1043.0524292 1259.05438232 C1032.92982318 1330.71128618 1017.67834613 1402.09797306 995.47631836 1471.03320312 C995.23308838 1471.7930249 994.9898584 1472.55284668 994.73925781 1473.33569336 C977.59651356 1526.88641459 956.23514521 1578.66380071 931.41894531 1629.11541748 C930.44720219 1631.09244032 929.47820923 1633.07079492 928.50952148 1635.04931641 C920.45684003 1651.47895412 912.10344805 1667.62155671 902.94067383 1683.46728516 C901.08371595 1686.721141 899.30407368 1690.01340723 897.52685547 1693.3112793 C890.41412231 1706.48859553 882.59811842 1719.23382848 874.74151611 1731.97665405 C873.33593557 1734.26139204 871.93732041 1736.55033255 870.53833008 1738.83911133 C863.31531818 1750.62181841 855.83407368 1762.20473217 848.13696289 1773.68286133 C846.34148291 1776.36037023 844.5510585 1779.04120377 842.76147461 1781.72265625 C833.74431886 1795.21860185 824.71609097 1808.72005869 815.16381836 1821.84570312 C814.62877686 1822.58377197 814.09373535 1823.32184082 813.54248047 1824.08227539 C807.81502162 1831.96947217 802.02691849 1839.81197729 796.23364258 1847.65087891 C794.49872046 1850.00283362 792.76976692 1852.35905152 791.04272461 1854.71679688 C782.95252027 1865.7525533 774.71221355 1876.66639295 766.39282227 1887.53027344 C764.56859349 1889.91269298 762.74661426 1892.29681155 760.92553711 1894.68164062 C757.77911872 1898.80137541 754.62860368 1902.91795649 751.47631836 1907.03320312 C750.80826172 1907.905979 750.80826172 1907.905979 750.12670898 1908.79638672 C744.09728116 1916.67067351 737.99752477 1924.48678267 731.85864258 1932.27587891 C730.49975217 1934.00341214 729.14548127 1935.73445778 727.79272461 1937.46679688 C722.37789235 1944.3946694 716.88120322 1951.24859575 711.3215332 1958.06079102 C707.74270019 1962.45318866 704.21510324 1966.88151265 700.72631836 1971.34570312 C696.06164072 1977.31318127 691.29206617 1983.1867467 686.47631836 1989.03320312 C685.01787495 1990.82478019 683.55954319 1992.61644815 682.10131836 1994.40820312 C678.30657318 1999.04916326 674.44437124 2003.62865868 670.56274414 2008.19677734 C667.66411997 2011.61341044 664.80491257 2015.0580731 661.97631836 2018.53320312 C657.35078843 2024.21223453 652.62164792 2029.79913134 647.87915039 2035.38037109 C646.50154248 2037.00348379 645.12700079 2038.62913352 643.75366211 2040.25585938 C638.03848901 2047.02493797 632.29184444 2053.76612095 626.51928711 2060.48632812 C624.47464157 2062.86703473 622.4360531 2065.25273121 620.40209961 2067.64257812 C614.93875944 2074.05481422 609.40394949 2080.37398366 603.71069336 2086.58398438 C601.18229464 2089.35549836 598.71447836 2092.17447315 596.25366211 2095.00585938 C593.42198889 2098.23583389 590.53429329 2101.41510968 587.65600586 2104.60351562 C585.78486742 2106.68926493 583.93707005 2108.79137941 582.10131836 2110.90820312 C578.68949323 2114.82548383 575.17912748 2118.6499295 571.66210938 2122.47241211 C568.76693133 2125.62033205 565.8927851 2128.78524116 563.03881836 2131.97070312 C558.08318069 2137.49068387 553.04643889 2142.93405007 548.00708008 2148.37744141 C546.5371948 2149.96735559 545.07055777 2151.56018744 543.60522461 2153.15429688 C520.74373298 2178.01373487 520.74373298 2178.01373487 511.56616211 2186.88085938 C509.75545113 2188.74572246 508.07207404 2190.65276375 506.38084412 2192.62449646 C502.40524896 2197.17810895 498.19276958 2201.45744702 493.9140625 2205.72485352 C493.08708359 2206.55358475 492.26010468 2207.38231598 491.4080658 2208.23616028 C488.69503183 2210.95356732 485.97838959 2213.66733306 483.26147461 2216.38085938 C481.36235683 2218.2806515 479.46338727 2220.18059089 477.56455994 2222.08067322 C473.59301174 2226.0540342 469.61937484 2230.02529716 465.64453125 2233.99536133 C461.06711189 2238.5673398 456.49330576 2243.14290921 451.92135912 2247.72035986 C447.97647924 2251.66979635 444.02963071 2255.61725753 440.08116812 2259.5631122 C437.73142989 2261.91130162 435.38254923 2264.26033601 433.03505135 2266.61076546 C430.41510998 2269.23326065 427.79195963 2271.85250471 425.16796875 2274.47094727 C424.02136276 2275.6205896 424.02136276 2275.6205896 422.85159302 2276.79345703 C418.78419194 2280.84502735 414.6348518 2284.73243677 410.26865292 2288.46117306 C407.18578251 2291.16511298 404.34345354 2294.10442656 401.47631836 2297.03320312 C397.29093827 2301.26726329 393.07952313 2305.35152356 388.53100586 2309.19726562 C385.17641062 2312.19471764 382.06032515 2315.42957104 378.89990234 2318.62915039 C375.57017502 2321.9841388 372.13682616 2325.13060918 368.53491211 2328.19335938 C365.40555795 2330.99018255 362.49090207 2333.99795661 359.54467773 2336.984375 C356.32249349 2340.23337354 352.98282362 2343.25771705 349.50366211 2346.22460938 C346.1616255 2349.20604088 343.06814246 2352.43413958 339.92163086 2355.61914062 C337.18508357 2358.32071606 334.3265247 2360.82399047 331.40600586 2363.32226562 C328.63524254 2365.77893432 326.07338936 2368.42680289 323.47631836 2371.06445312 C320.91326608 2373.58745772 318.20286012 2375.9088313 315.47631836 2378.25195312 C312.68746303 2380.7357774 310.09944853 2383.4003175 307.48022461 2386.06054688 C304.89385685 2388.60658142 302.16096556 2390.95341869 299.40991211 2393.31835938 C296.9120028 2395.53367692 294.59606847 2397.90218483 292.25756836 2400.28320312 C289.75735651 2402.73955161 287.0995132 2404.9962968 284.44506836 2407.28320312 C281.96986799 2409.48338123 279.66870083 2411.82751361 277.3503418 2414.19042969 C275.54742257 2415.9632846 273.69059793 2417.62000861 271.77319336 2419.26757812 C267.48405331 2422.99692232 263.34821734 2426.87087608 259.22631836 2430.78320312 C253.36211217 2436.32664093 247.46119037 2441.82097743 241.49975586 2447.25976562 C237.96679856 2450.49063973 234.47246899 2453.7626106 230.97631836 2457.03320312 C225.49098178 2462.16321426 219.97609802 2467.25830418 214.43334961 2472.32617188 C211.29298666 2475.19810981 208.16494803 2478.08328761 205.03881836 2480.97070312 C204.49926514 2481.46900635 203.95971191 2481.96730957 203.40380859 2482.48071289 C201.76115705 2483.99804219 200.11870115 2485.51558294 198.47631836 2487.03320312 C189.66851965 2495.17192277 180.84210883 2503.28973687 171.99682617 2511.38769531 C166.3130949 2516.59185005 160.63672651 2521.80367945 154.97631836 2527.03320312 C149.32046558 2532.2585182 143.64838654 2537.46581969 137.96899414 2542.66552734 C136.4481696 2544.05899464 134.92884511 2545.45408064 133.40991211 2546.84960938 C128.80557888 2551.07843788 124.19355241 2555.29723399 119.53881836 2559.47070312 C114.57393745 2563.92718023 109.67496884 2568.45268374 104.77709961 2572.98242188 C98.06847616 2579.18637074 91.34168146 2585.37007106 84.53881836 2591.47070312 C80.08345032 2595.46837686 75.68548317 2599.52521198 71.29296875 2603.59155273 C67.25181952 2607.32847194 63.1692124 2611.01619418 59.07006836 2614.68945312 C56.01740155 2617.44788699 52.9954918 2620.23822356 49.97631836 2623.03320312 C45.35281735 2627.31297936 40.69539448 2631.55078968 36.00366211 2635.75585938 C33.14549633 2638.33130088 30.30921575 2640.93006076 27.47631836 2643.53320312 C23.02569858 2647.62240858 18.54553719 2651.67689427 14.04663086 2655.71289062 C11.13203389 2658.34400096 8.24092611 2660.99972788 5.35131836 2663.65820312 C2.11418745 2666.63542953 -1.1350602 2669.59273278 -4.46118164 2672.47070312 C-8.64478021 2676.09532402 -12.68802774 2679.8670538 -16.74609375 2683.63061523 C-20.234395 2686.85996183 -23.77102344 2690.01819349 -27.36743164 2693.12695312 C-30.29608526 2695.71605271 -33.15766341 2698.37514994 -36.02368164 2701.03320312 C-40.08383127 2704.79873873 -44.17779566 2708.50540338 -48.36743164 2712.12695312 C-51.29608577 2714.71605315 -54.15764837 2717.37516546 -57.02368164 2720.03320312 C-61.10667038 2723.81954219 -65.22137978 2727.55087446 -69.43383789 2731.19335938 C-72.16738723 2733.59990468 -74.8448217 2736.06623509 -77.52368164 2738.53320312 C-81.43347345 2742.13335636 -85.382347 2745.67737977 -89.39868164 2749.15820312 C-92.14191582 2751.57870388 -94.83252732 2754.05520955 -97.52368164 2756.53320312 C-101.43349759 2760.13333069 -105.38234632 2763.67737918 -109.39868164 2767.15820312 C-112.14191582 2769.57870388 -114.83252732 2772.05520955 -117.52368164 2774.53320312 C-121.43349759 2778.13333069 -125.38234632 2781.67737918 -129.39868164 2785.15820312 C-132.14191582 2787.57870388 -134.83252732 2790.05520955 -137.52368164 2792.53320312 C-141.43349759 2796.13333069 -145.38234632 2799.67737918 -149.39868164 2803.15820312 C-152.14191582 2805.57870388 -154.83252732 2808.05520955 -157.52368164 2810.53320312 C-161.43349759 2814.13333069 -165.38234632 2817.67737918 -169.39868164 2821.15820312 C-172.14191582 2823.57870388 -174.83252732 2826.05520955 -177.52368164 2828.53320312 C-180.82397087 2831.5720833 -184.13317447 2834.59476358 -187.52368164 2837.53320312 C-191.40185177 2840.8964295 -195.17895975 2844.36655983 -198.95678711 2847.84130859 C-203.77953055 2852.27543941 -208.64709284 2856.65838552 -213.52368164 2861.03320312 C-215.19060811 2862.5329144 -216.85727313 2864.03291633 -218.52368164 2865.53320312 C-228.52368164 2874.53320312 -238.52368164 2883.53320313 -248.52368164 2892.53320312 C-249.35125977 2893.27828125 -250.17883789 2894.02335937 -251.03149414 2894.79101562 C-252.67108043 2896.26612931 -254.31167819 2897.74011964 -255.95336914 2899.21289062 C-260.54398728 2903.33418039 -265.10818132 2907.48191026 -269.64868164 2911.65820312 C-272.8858538 2914.63538593 -276.13505893 2917.59273168 -279.46118164 2920.47070312 C-283.64478021 2924.09532402 -287.68802774 2927.8670538 -291.74609375 2931.63061523 C-295.234395 2934.85996183 -298.77102344 2938.01819349 -302.36743164 2941.12695312 C-305.29608526 2943.71605271 -308.15766341 2946.37514994 -311.02368164 2949.03320312 C-314.4865521 2952.24479954 -317.95016478 2955.44423092 -321.52368164 2958.53320312 C-325.639621 2962.09340383 -329.61951602 2965.79550438 -333.61010742 2969.49462891 C-336.84848101 2972.49415961 -340.10668596 2975.46735365 -343.39868164 2978.40820312 C-349.51938434 2983.89709135 -355.50965743 2989.52427162 -361.50756836 2995.14648438 C-363.54183213 2997.05018871 -365.58103772 2998.94847131 -367.62133789 3000.84570312 C-374.78299584 3007.51615901 -381.83990732 3014.25098706 -388.67993164 3021.25195312 C-390.7274167 3023.25443851 -392.75335027 3025.09799435 -394.9296875 3026.94360352 C-400.84414469 3032.10140908 -406.33105634 3037.6965154 -411.87133789 3043.24804688 C-413.05368242 3044.42971612 -414.23617521 3045.61123703 -415.41880798 3046.7926178 C-417.88548698 3049.25783035 -420.35036867 3051.72482198 -422.81396484 3054.19311523 C-425.95290096 3057.33774796 -429.09630635 3060.47786868 -432.24108219 3063.61666012 C-434.6803017 3066.05224545 -437.11710905 3068.49023301 -439.55322075 3070.92892647 C-440.71057441 3072.08694151 -441.86865551 3073.24423005 -443.0275135 3074.40073967 C-448.57194562 3079.9363967 -454.05454453 3085.47601688 -459.14891052 3091.43605042 C-460.83404487 3093.3937704 -462.61698714 3095.22532755 -464.46118164 3097.03320312 C-465.4627832 3098.02320312 -465.4627832 3098.02320312 -466.48461914 3099.03320312 C-467.84399414 3100.36653646 -469.20336914 3101.69986979 -470.56274414 3103.03320312 C-474.54461778 3106.96895468 -478.31140343 3111.01003375 -481.96508789 3115.25195312 C-484.52873073 3118.18183065 -487.32534752 3120.8557148 -490.11743164 3123.56445312 C-492.09484178 3125.59322457 -493.95780784 3127.65272272 -495.81274414 3129.79101562 C-499.55966465 3134.10912531 -503.46221565 3138.26325795 -507.39868164 3142.40820312 C-512.43834708 3147.73795438 -517.43338568 3153.09467164 -522.31274414 3158.57226562 C-525.06010214 3161.63027894 -527.8538322 3164.64364496 -530.64868164 3167.65820312 C-534.4412282 3171.75297285 -538.18481839 3175.87772062 -541.83618164 3180.09960938 C-543.76675409 3182.31172364 -545.73792053 3184.48409222 -547.71118164 3186.65820312 C-551.89760084 3191.29316723 -555.95573666 3196.02799457 -560.00415039 3200.78295898 C-563.17348737 3204.49311952 -566.40691688 3208.129111 -569.71118164 3211.72070312 C-573.73762 3216.10675958 -577.50477886 3220.6506194 -581.24243164 3225.28320312 C-583.59087133 3228.11419891 -586.03278066 3230.8270391 -588.52368164 3233.53320312 C-592.63747073 3238.00305433 -596.49455461 3242.62365206 -600.30883789 3247.34960938 C-602.48000991 3249.9802887 -604.72609521 3252.51262737 -607.02368164 3255.03320312 C-610.86560104 3259.25334256 -614.48483385 3263.61347497 -618.07446289 3268.04882812 C-620.84178966 3271.420818 -623.67518579 3274.72982633 -626.52368164 3278.03320312 C-630.8420031 3283.04481442 -635.07275344 3288.11539302 -639.24243164 3293.25195312 C-641.8221122 3296.39704312 -644.45007838 3299.49793238 -647.08618164 3302.59570312 C-651.00022906 3307.19994937 -654.82628725 3311.86088171 -658.58227539 3316.59570312 C-660.60422863 3319.13433254 -662.65340433 3321.64853643 -664.71118164 3324.15820312 C-673.01095086 3334.28649293 -681.29922008 3344.41860267 -689.35693359 3354.74121094 C-692.87699208 3359.23945238 -696.47226384 3363.67266782 -700.08618164 3368.09570312 C-704.78234548 3373.84999343 -709.36973518 3379.66698689 -713.87524414 3385.57226562 C-716.99890817 3389.66592217 -720.1697717 3393.72258555 -723.33618164 3397.78320312 C-729.52934964 3405.73510043 -735.66817164 3413.72691711 -741.77709961 3421.74365234 C-743.64932009 3424.19789943 -745.52577346 3426.64887389 -747.40258789 3429.09960938 C-754.52552162 3438.41063386 -761.5806207 3447.76445514 -768.51342773 3457.21801758 C-772.17006343 3462.20372181 -775.86323041 3467.15937283 -779.58618164 3472.09570312 C-785.46203125 3479.89930701 -791.17866894 3487.81367045 -796.87817383 3495.74658203 C-798.51869833 3498.02627825 -800.16469854 3500.30190811 -801.81274414 3502.57617188 C-808.62728273 3511.98194028 -815.36751656 3521.43651581 -822.04858398 3530.9375 C-824.00111348 3533.71150086 -825.95970334 3536.4811961 -827.91821289 3539.25097656 C-829.9344552 3542.10377323 -831.94742318 3544.95887017 -833.9597168 3547.81445312 C-835.00820015 3549.301905 -836.05736143 3550.78887923 -837.10717773 3552.27539062 C-854.53226178 3576.96224285 -871.28431382 3602.10521264 -888.01635742 3627.26416016 C-891.59755723 3632.64855826 -895.18567406 3638.0283397 -898.77368164 3643.40820312 C-899.86225905 3645.0409918 -900.95080455 3646.67380174 -902.03930664 3648.30664062 C-903.53409831 3650.54882813 -905.02888997 3652.79101562 -906.52368164 3655.03320312 C-909.67446173 3653.68328947 -911.31031282 3652.37045334 -913.26586914 3649.56835938 C-913.76731445 3648.86066406 -914.26875977 3648.15296875 -914.78540039 3647.42382812 C-915.3177832 3646.65554687 -915.85016602 3645.88726563 -916.39868164 3645.09570312 C-917.56174194 3643.45046293 -918.72583845 3641.80595488 -919.89086914 3640.16210938 C-920.48996094 3639.31277832 -921.08905273 3638.46344727 -921.70629883 3637.58837891 C-924.59236598 3633.53067085 -927.55826067 3629.5330829 -930.52368164 3625.53320312 C-935.06222607 3619.39381537 -939.56335761 3613.22964233 -944.02368164 3607.03320312 C-950.20452027 3598.44948722 -956.47154023 3589.93118804 -962.75756836 3581.42431641 C-965.09947447 3578.25364617 -967.43762872 3575.08022063 -969.77539062 3571.90649414 C-970.9425377 3570.32210136 -972.11001915 3568.73795483 -973.27783203 3567.15405273 C-976.1749652 3563.22438985 -979.06822573 3559.29199148 -981.95336914 3555.35351562 C-988.72541835 3546.11890307 -995.59646183 3536.96898484 -1002.55786133 3527.8762207 C-1006.98773088 3522.07981454 -1011.34141111 3516.23364008 -1015.64868164 3510.34570312 C-1021.86360825 3501.86081675 -1028.27857652 3493.54655164 -1034.76928711 3485.27148438 C-1037.71669909 3481.51113466 -1040.65182284 3477.74124234 -1043.58618164 3473.97070312 C-1044.45521118 3472.85514038 -1044.45521118 3472.85514038 -1045.34179688 3471.71704102 C-1048.74353752 3467.34405462 -1052.11573604 3462.95011784 -1055.46728516 3458.53857422 C-1060.78807833 3451.53672816 -1066.21890165 3444.64610392 -1071.78955078 3437.84130859 C-1075.25171654 3433.61017925 -1078.66020705 3429.34313384 -1082.02368164 3425.03320312 C-1087.10432839 3418.52732629 -1092.30403914 3412.12240209 -1097.51977539 3405.72460938 C-1099.95484343 3402.73677254 -1102.37105577 3399.7347328 -1104.77368164 3396.72070312 C-1108.97602803 3391.45235272 -1113.24914284 3386.24302563 -1117.52368164 3381.03320312 C-1119.02396481 3379.20010151 -1120.52396572 3377.36676885 -1122.02368164 3375.53320312 C-1122.76875977 3374.623125 -1123.51383789 3373.71304688 -1124.28149414 3372.77539062 C-1125.75773024 3370.96995901 -1127.231749 3369.16271171 -1128.70336914 3367.35351562 C-1133.22217011 3361.80552155 -1137.80578653 3356.31932114 -1142.43945312 3350.86743164 C-1145.31888432 3347.47404933 -1148.15557891 3344.05070395 -1150.96118164 3340.59570312 C-1155.85940404 3334.58187136 -1160.91281411 3328.70686909 -1165.9753418 3322.83154297 C-1168.49661099 3319.90318143 -1171.00980407 3316.96790963 -1173.52368164 3314.03320312 C-1174.52364141 3312.86650198 -1175.52364145 3311.69983534 -1176.52368164 3310.53320312 C-1182.52368164 3303.53320313 -1182.52368164 3303.53320313 -1184.02416992 3301.7824707 C-1185.0223278 3300.61806152 -1186.02069958 3299.45383566 -1187.01928711 3298.28979492 C-1189.54927394 3295.34006966 -1192.07524551 3292.38706411 -1194.59399414 3289.42773438 C-1199.22498546 3283.99379189 -1203.87914008 3278.60344232 -1208.71118164 3273.34570312 C-1211.84393352 3269.93536563 -1214.82385248 3266.46563819 -1217.71118164 3262.84570312 C-1222.21395829 3257.25937059 -1227.08734947 3252.06258192 -1232.03222656 3246.86645508 C-1235.7452799 3242.9605925 -1239.34883425 3238.98531375 -1242.88061523 3234.91479492 C-1245.21436299 3232.24225496 -1247.61587632 3229.63929829 -1250.02368164 3227.03320312 C-1253.00445418 3223.79879064 -1255.96685619 3220.55493194 -1258.83618164 3217.22070312 C-1262.81208441 3212.63458986 -1266.98137354 3208.22981858 -1271.13061523 3203.80126953 C-1274.76529182 3199.92101965 -1278.37705885 3196.02270164 -1281.96118164 3192.09570312 C-1288.09008157 3185.39333888 -1294.30584378 3178.77385711 -1300.52807617 3172.15820312 C-1302.54982214 3170.00536768 -1304.56649334 3167.84787267 -1306.58227539 3165.68945312 C-1313.30491485 3158.50262758 -1320.05538387 3151.36684264 -1327.1003418 3144.4934082 C-1329.62400584 3142.01410049 -1332.00390452 3139.48740084 -1334.28149414 3136.77978516 C-1340.29544519 3129.88260104 -1346.89105372 3123.52239195 -1353.36352539 3117.06054688 C-1354.81423783 3115.60915962 -1356.26480189 3114.15762405 -1357.71522522 3112.70594788 C-1360.74537747 3109.67432704 -1363.77731617 3106.64450745 -1366.81054688 3103.6159668 C-1370.6815882 3099.75062222 -1374.54812204 3095.88080488 -1378.4133215 3092.00961971 C-1381.40478716 3089.01452575 -1384.39864875 3086.02183583 -1387.3932209 3083.0298481 C-1388.81918108 3081.60455091 -1390.24441014 3080.17852185 -1391.66886711 3078.75172234 C-1401.05575254 3069.27405668 -1401.05575254 3069.27405668 -1410.973526 3060.36317444 C-1413.81954916 3057.92140081 -1416.40482062 3055.21354165 -1419.02368164 3052.53320312 C-1423.11571495 3048.38933465 -1427.25740542 3044.4102301 -1431.69946289 3040.63867188 C-1434.35941525 3038.29768597 -1436.81341904 3035.76883225 -1439.27368164 3033.22070312 C-1441.21804288 3031.33035192 -1443.20280281 3029.55151458 -1445.25024414 3027.77539062 C-1449.5775467 3024.01678493 -1453.7431305 3020.10471774 -1457.89868164 3016.15820312 C-1463.25381782 3011.09481796 -1468.63493562 3006.07410578 -1474.13696289 3001.16992188 C-1476.95419964 2998.6477803 -1479.7400606 2996.09227494 -1482.52368164 2993.53320312 C-1487.82474038 2988.66357692 -1493.1656108 2983.83996121 -1498.52368164 2979.03320312 C-1500.19060811 2977.53349185 -1501.85727313 2976.03348992 -1503.52368164 2974.53320312 C-1504.34610352 2973.79328125 -1505.16852539 2973.05335938 -1506.01586914 2972.29101562 C-1507.70961058 2970.76612068 -1509.40229333 2969.24004911 -1511.09399414 2967.71289062 C-1515.51916294 2963.72076587 -1519.96705299 2959.7599442 -1524.46118164 2955.84570312 C-1527.69743241 2953.00172518 -1530.88776832 2950.10707612 -1534.08618164 2947.22070312 C-1536.85865472 2944.73258626 -1539.66213013 2942.28252849 -1542.47290039 2939.83789062 C-1544.78456961 2937.80362171 -1547.05899594 2935.73098003 -1549.33618164 2933.65820312 C-1552.71309146 2930.60461446 -1556.15585296 2927.68891108 -1559.71118164 2924.84570312 C-1565.04427558 2920.5384943 -1569.99723885 2915.89593151 -1574.97338867 2911.18896484 C-1579.39087223 2907.03192758 -1583.96225492 2903.16667446 -1588.70336914 2899.38085938 C-1593.41775806 2895.45655503 -1597.8427388 2891.22293451 -1602.31665039 2887.02929688 C-1606.97559483 2882.66330019 -1611.79438967 2878.5014448 -1616.66040039 2874.36914062 C-1623.80174994 2868.29369399 -1630.78000796 2862.08717333 -1637.64477539 2855.70117188 C-1642.21507344 2851.46573963 -1646.91532827 2847.39794121 -1651.66430664 2843.36523438 C-1658.80478521 2837.29157432 -1665.78134945 2831.08592541 -1672.64477539 2824.70117188 C-1677.21507344 2820.46573963 -1681.91532827 2816.39794121 -1686.66430664 2812.36523438 C-1693.24787617 2806.76527874 -1699.71732134 2801.07959443 -1706.04321289 2795.18945312 C-1709.49737538 2791.97350873 -1712.99803756 2788.82802358 -1716.56665039 2785.74023438 C-1718.90927314 2783.69686882 -1721.21641586 2781.61639453 -1723.52368164 2779.53320312 C-1726.50430885 2776.84336882 -1729.49613397 2774.17009949 -1732.52368164 2771.53320312 C-1735.55122931 2768.89630676 -1738.54305443 2766.22303743 -1741.52368164 2763.53320312 C-1746.84702857 2758.73412521 -1752.21231503 2753.99242363 -1757.67602539 2749.35351562 C-1764.25686343 2743.75878573 -1770.72134063 2738.075852 -1777.04321289 2732.18945312 C-1780.49737538 2728.97350873 -1783.99803756 2725.82802358 -1787.56665039 2722.74023438 C-1789.90927314 2720.69686882 -1792.21641586 2718.61639453 -1794.52368164 2716.53320312 C-1797.50430885 2713.84336882 -1800.49613397 2711.17009949 -1803.52368164 2708.53320312 C-1807.42019811 2705.13946298 -1811.25433109 2701.67890309 -1815.09008789 2698.21679688 C-1817.1987931 2696.32471627 -1819.32287965 2694.45414555 -1821.46118164 2692.59570312 C-1825.65532529 2688.9438326 -1829.75462456 2685.19054129 -1833.86352539 2681.44335938 C-1836.71123959 2678.86327176 -1839.59612182 2676.33118457 -1842.49633789 2673.81054688 C-1844.85857337 2671.73960826 -1847.19164017 2669.63807465 -1849.52368164 2667.53320312 C-1852.50430885 2664.84336882 -1855.49613397 2662.17009949 -1858.52368164 2659.53320312 C-1862.41880975 2656.14067219 -1866.25150927 2652.68126112 -1870.08618164 2649.22070312 C-1872.21785645 2647.30766163 -1874.36387274 2645.414327 -1876.52368164 2643.53320312 C-1880.42019811 2640.13946298 -1884.25433109 2636.67890309 -1888.09008789 2633.21679688 C-1890.1987931 2631.32471627 -1892.32287965 2629.45414555 -1894.46118164 2627.59570312 C-1898.65532529 2623.9438326 -1902.75462456 2620.19054129 -1906.86352539 2616.44335938 C-1909.71123959 2613.86327176 -1912.59612182 2611.33118457 -1915.49633789 2608.81054688 C-1917.85857337 2606.73960826 -1920.19164017 2604.63807465 -1922.52368164 2602.53320312 C-1925.50430885 2599.84336882 -1928.49613397 2597.17009949 -1931.52368164 2594.53320312 C-1937.11348153 2589.66177109 -1942.59903062 2584.67425162 -1948.10180664 2579.70507812 C-1952.52489565 2575.71615736 -1956.96983169 2571.75752405 -1961.46118164 2567.84570312 C-1964.69881494 2565.00051023 -1967.89054454 2562.10466477 -1971.09008789 2559.21679688 C-1973.1987931 2557.32471627 -1975.32287965 2555.45414555 -1977.46118164 2553.59570312 C-1981.65532529 2549.9438326 -1985.75462456 2546.19054129 -1989.86352539 2542.44335938 C-1992.71395198 2539.86081429 -1995.60194056 2537.32665209 -1998.50415039 2534.80273438 C-2003.4210472 2530.49450564 -2008.25007196 2526.08634156 -2013.10180664 2521.70507812 C-2016.88843123 2518.29014675 -2020.67951781 2514.88333787 -2024.52368164 2511.53320312 C-2030.11348153 2506.66177109 -2035.59903062 2501.67425162 -2041.10180664 2496.70507812 C-2044.88843123 2493.29014675 -2048.67951781 2489.88333787 -2052.52368164 2486.53320312 C-2058.11348153 2481.66177109 -2063.59903062 2476.67425162 -2069.10180664 2471.70507812 C-2072.88843123 2468.29014675 -2076.67951781 2464.88333787 -2080.52368164 2461.53320312 C-2086.11348153 2456.66177109 -2091.59903062 2451.67425162 -2097.10180664 2446.70507812 C-2100.86669014 2443.30975374 -2104.63561715 2439.9226197 -2108.46118164 2436.59570312 C-2112.65671386 2432.94262356 -2116.75741718 2429.18814764 -2120.86743164 2425.43945312 C-2123.06720905 2423.44671359 -2125.28323382 2421.47982172 -2127.52368164 2419.53320312 C-2130.73267408 2416.74506215 -2133.88284608 2413.89792128 -2137.02368164 2411.03320312 C-2140.8130229 2407.57744899 -2144.63451862 2404.16797423 -2148.50415039 2400.80273438 C-2152.55035845 2397.25741087 -2156.52991867 2393.63733069 -2160.52368164 2390.03320312 C-2161.32805664 2389.31132812 -2162.13243164 2388.58945313 -2162.96118164 2387.84570312 C-2168.0249747 2383.30127346 -2173.05444696 2378.72098508 -2178.06445312 2374.11743164 C-2181.17965357 2371.25746925 -2184.31202704 2368.41820311 -2187.46118164 2365.59570312 C-2197.95642739 2356.17003656 -2208.24590294 2346.51690862 -2218.54711914 2336.88037109 C-2220.58922521 2334.97195032 -2222.63442882 2333.06688847 -2224.67993164 2331.16210938 C-2231.27698488 2325.0096452 -2237.83197634 2318.85003395 -2244.11743164 2312.37695312 C-2245.99172845 2310.55133934 -2247.87510617 2308.87691845 -2249.86743164 2307.18945312 C-2257.4973516 2300.56927094 -2264.44014345 2293.16838829 -2271.54223633 2285.99414062 C-2280.85768598 2276.52700493 -2280.85768598 2276.52700493 -2290.70288086 2267.62255859 C-2294.50769638 2264.30138013 -2298.02570716 2260.67429707 -2301.58618164 2257.09570312 C-2302.34995117 2256.33580078 -2303.1137207 2255.57589844 -2303.90063477 2254.79296875 C-2307.26750414 2251.42033912 -2310.56382746 2248.04113149 -2313.64477539 2244.40429688 C-2319.52680402 2237.57281693 -2326.12162341 2231.37087284 -2332.52368164 2225.03320312 C-2347.96801638 2209.74419934 -2347.96801638 2209.74419934 -2353.11743164 2203.66210938 C-2355.43987124 2200.97195017 -2357.98043851 2198.5124017 -2360.52368164 2196.03320312 C-2364.4903193 2192.12066716 -2368.26953315 2188.13759116 -2371.88305664 2183.89257812 C-2374.23850837 2181.22306616 -2376.77596853 2178.75513302 -2379.33618164 2176.28320312 C-2381.23642048 2174.32867175 -2383.0262041 2172.33269452 -2384.81274414 2170.27539062 C-2388.40701731 2166.13728496 -2392.1323248 2162.13938975 -2395.89868164 2158.15820312 C-2401.5220425 2152.18692011 -2407.06764214 2146.15818233 -2412.52368164 2140.03320312 C-2414.0228096 2138.36575203 -2415.52282699 2136.69910021 -2417.02368164 2135.03320312 C-2417.76360352 2134.21078125 -2418.50352539 2133.38835938 -2419.26586914 2132.54101562 C-2420.79076409 2130.84727418 -2422.31683566 2129.15459144 -2423.84399414 2127.46289062 C-2429.40703868 2121.29639718 -2434.91507162 2115.09065959 -2440.30883789 2108.77539062 C-2441.33875643 2107.56963636 -2442.36870517 2106.3639079 -2443.39868164 2105.15820312 C-2444.17816162 2104.24542603 -2444.17816162 2104.24542603 -2444.97338867 2103.31420898 C-2448.00260697 2099.77696455 -2451.07516747 2096.28927735 -2454.21118164 2092.84570312 C-2458.06219169 2088.60612269 -2461.67212119 2084.20388201 -2465.27368164 2079.75195312 C-2467.45869733 2077.11172583 -2469.71539555 2074.56590592 -2472.02368164 2072.03320312 C-2475.86560104 2067.81306369 -2479.48483385 2063.45293128 -2483.07446289 2059.01757812 C-2485.8417917 2055.64558576 -2488.67525534 2052.33664244 -2491.52368164 2049.03320312 C-2496.62356282 2043.11223626 -2501.60147714 2037.10302544 -2506.52368164 2031.03320312 C-2508.02282664 2029.19917058 -2509.52283487 2027.36584332 -2511.02368164 2025.53320312 C-2511.77133789 2024.61925781 -2512.51899414 2023.7053125 -2513.28930664 2022.76367188 C-2514.73665215 2020.99497517 -2516.18453465 2019.2267177 -2517.63305664 2017.45898438 C-2519.09775873 2015.67087179 -2520.56124285 2013.88176102 -2522.02368164 2012.09179688 C-2523.33995893 2010.48141388 -2524.65663145 2008.87134924 -2525.97680664 2007.26416016 C-2532.68971456 1999.09127952 -2539.25213728 1990.83155514 -2545.63891602 1982.40112305 C-2549.42134805 1977.42612989 -2553.31170078 1972.55361424 -2557.27368164 1967.72070312 C-2561.63747506 1962.39201866 -2565.87164258 1957.0010691 -2569.96899414 1951.46289062 C-2572.65456793 1947.83858371 -2575.3993365 1944.26016891 -2578.14038086 1940.67773438 C-2590.33762089 1924.73302823 -2602.19242631 1908.55101639 -2613.91918945 1892.25830078 C-2615.52006627 1890.03821689 -2617.12643595 1887.82221764 -2618.73461914 1885.60742188 C-2668.53110542 1816.98350216 -2714.70882182 1745.45268599 -2753.52368164 1670.03320312 C-2753.99596191 1669.1226416 -2754.46824219 1668.21208008 -2754.95483398 1667.27392578 C-2793.50558096 1592.77596188 -2821.25258588 1511.87634642 -2882.42993164 1175.76757812 C-2882.49055786 1174.99722229 -2882.55118408 1174.22686646 -2882.61364746 1173.4331665 C-2885.63793531 1133.62625734 -2886.88484051 1093.8115626 -2886.83935547 1053.89648438 C-2886.83472542 1049.49468767 -2886.84167419 1045.09316748 -2886.85986328 1040.69140625 C-2886.95799559 1016.66327168 -2886.64808284 992.73490842 -2885.14477539 968.74804688 C-2885.0832107 967.76512413 -2885.021646 966.78220139 -2884.95821571 965.7694931 C-2880.03338335 889.00510412 -2867.08802865 812.34450492 -2843.52368164 739.03320312 C-2843.3081665 738.36063477 -2843.09265137 737.68806641 -2842.87060547 736.99511719 C-2826.03573971 684.51744694 -2805.8170894 633.52811764 -2781.52368164 584.03320312 C-2780.89816447 582.75473419 -2780.2726773 581.47625057 -2779.6472168 580.19775391 C-2771.58556756 563.74188949 -2763.26583024 547.5267202 -2754.05297852 531.67724609 C-2752.51952371 529.02601436 -2751.0103223 526.36237168 -2749.50805664 523.69335938 C-2738.62603498 504.38177823 -2726.79197292 485.7985505 -2714.52368164 467.34570312 C-2713.97927429 466.52507385 -2713.43486694 465.70444458 -2712.8739624 464.85894775 C-2705.45618179 453.69083282 -2697.80630228 442.72437001 -2689.89086914 431.90328979 C-2688.13530847 429.50197278 -2686.39258607 427.09143043 -2684.64868164 424.68164062 C-2677.67586871 415.12006083 -2670.44200613 405.83585764 -2662.90454102 396.71386719 C-2661.0414862 394.44631602 -2659.21930828 392.14738965 -2657.39868164 389.84570312 C-2653.904203 385.46105203 -2650.29191161 381.18386 -2646.65551758 376.91699219 C-2643.7638185 373.5190963 -2640.93935065 370.07763877 -2638.14868164 366.59570312 C-2634.07277062 361.58145288 -2629.7351537 356.85278026 -2625.3034668 352.15454102 C-2622.56920338 349.25390707 -2619.88884268 346.32322149 -2617.2800293 343.30883789 C-2613.67470869 339.17951324 -2609.97074124 335.15497229 -2606.21118164 331.16601562 C-2605.18238892 330.07415451 -2605.18238892 330.07415451 -2604.1328125 328.9602356 C-2596.82039076 321.23683563 -2589.33336863 313.69140593 -2581.80249023 306.18164062 C-2579.49351928 303.87811186 -2577.19005387 301.56917176 -2574.88696289 299.25976562 C-2573.39119023 297.76465266 -2571.895108 296.26984931 -2570.39868164 294.77539062 C-2569.72458252 294.09926727 -2569.0504834 293.42314392 -2568.35595703 292.72653198 C-2564.45478897 288.84432692 -2560.44363867 285.1487485 -2556.27807617 281.55178833 C-2554.31439875 279.85205008 -2552.40883717 278.10072215 -2550.52368164 276.31445312 C-2549.86368164 275.69183594 -2549.20368164 275.06921875 -2548.52368164 274.42773438 C-2547.86368164 273.80253906 -2547.20368164 273.17734375 -2546.52368164 272.53320312 C-2541.29115508 267.57661058 -2535.98142558 262.74108115 -2530.52368164 258.03320312 C-2529.66637451 257.29263672 -2529.66637451 257.29263672 -2528.79174805 256.53710938 C-2525.31099162 253.53805102 -2521.81698791 250.55442219 -2518.32299805 247.57080078 C-2517.16285904 246.57940927 -2516.00361069 245.58697408 -2514.84545898 244.59326172 C-2507.20277925 238.0361507 -2499.41316331 231.71007104 -2491.45727539 225.53710938 C-2489.40138189 223.9380811 -2487.35279326 222.33000273 -2485.30493164 220.72070312 C-2439.02523277 184.42199776 -2389.51690813 152.51814325 -2337.52368164 125.03320312 C-2336.30981313 124.38899989 -2335.09594599 123.74479408 -2333.88208008 123.10058594 C-2255.93203893 81.81487521 -2172.57264649 50.0916276 -1919.52368164 6.03320312 C-1918.7551889 5.99083527 -1917.98669617 5.94846741 -1917.19491577 5.90481567 C-1897.54008151 4.84622267 -1877.88803958 4.83187056 -1858.21118164 4.84570312 C-1856.93488325 4.84610344 -1856.93488325 4.84610344 -1855.63280106 4.84651184 C-1828.89009034 4.85703198 -1802.20504573 5.03085794 -1775.52368164 7.03320312 C-1774.20823364 7.13148407 -1774.20823364 7.13148407 -1772.86621094 7.23175049 C-1690.46458738 13.4772384 -1609.26650633 29.31315789 -1530.78424072 55.2857666 C-1528.55249847 56.02367506 -1526.31924853 56.75685762 -1524.08569336 57.48925781 C-1448.01607815 82.49882314 -1375.66398912 117.11912998 -1307.52368164 159.03320312 C-1306.28352295 159.79358887 -1306.28352295 159.79358887 -1305.01831055 160.56933594 C-1294.3409709 167.12355422 -1283.89872459 174.01152227 -1273.52368164 181.03320312 C-1272.50274414 181.72349609 -1272.50274414 181.72349609 -1271.46118164 182.42773438 C-1248.26693445 198.147273 -1225.81107627 214.88440197 -1204.17211914 232.68457031 C-1201.91249006 234.53323604 -1199.62517129 236.34608632 -1197.33618164 238.15820312 C-1191.87666597 242.5148784 -1186.55697553 247.03350407 -1181.24438477 251.56689453 C-1179.51262247 253.04262727 -1177.7762597 254.51280433 -1176.03930664 255.98242188 C-1169.0590705 261.90572293 -1162.25024295 267.9775 -1155.55493164 274.22070312 C-1152.82927197 276.76052237 -1150.05827484 279.24550917 -1147.27368164 281.72070312 C-1143.33905143 285.24149683 -1139.59665702 288.90653682 -1135.92211914 292.69726562 C-1133.97550691 294.5931518 -1132.00236347 296.35675886 -1129.94165039 298.12304688 C-1125.04866431 302.37167974 -1120.47489282 306.93143222 -1115.90527344 311.52124023 C-1114.46342943 312.96844698 -1113.01631048 314.41022338 -1111.56860352 315.8515625 C-1106.86773055 320.54941686 -1102.30470275 325.31243463 -1097.97900391 330.35961914 C-1096.09510853 332.52605142 -1094.08366154 334.53471517 -1092.02368164 336.53320312 C-1088.65268099 339.86441119 -1085.47854134 343.28431941 -1082.39477539 346.88085938 C-1080.19288335 349.41372475 -1077.92172338 351.87652835 -1075.64868164 354.34570312 C-1071.59846873 358.78571097 -1067.76834042 363.35254594 -1063.99633789 368.02929688 C-1061.11484531 371.52987791 -1058.13623602 374.93577638 -1055.14868164 378.34570312 C-1049.53723521 384.77558689 -1044.20608625 391.37503169 -1038.99536133 398.13183594 C-1037.41259174 400.17672804 -1035.8168864 402.21104632 -1034.21899414 404.24414062 C-990.20516714 460.33376238 -953.12103586 521.18173674 -921.52368164 585.03320312 C-920.5246588 587.03369141 -919.52479693 589.03376116 -918.52368164 591.03320312 C-917.85701497 592.36653646 -917.19034831 593.69986979 -916.52368164 595.03320312 C-910.6681788 584.77199743 -905.1184255 574.3727378 -899.73910522 563.85540771 C-893.59565855 551.84428824 -887.24847676 540.00019892 -880.52758789 528.29882812 C-878.10806099 524.08491525 -875.7766765 519.83080973 -873.47436523 515.55200195 C-854.09609866 479.6468933 -830.1758366 445.65416841 -805.31713867 413.36572266 C-803.78475472 411.3727474 -802.25914598 409.37499865 -800.73852539 407.37304688 C-791.95910669 395.85273648 -782.80265959 384.63556743 -773.40454102 373.61523438 C-770.57693953 370.29641452 -767.81753089 366.93145272 -765.08618164 363.53320312 C-760.70917044 358.15034375 -756.02814037 353.0904897 -751.29711914 348.02148438 C-749.1601385 345.72961903 -747.07144816 343.40561555 -745.02368164 341.03320312 C-740.54684717 335.86927655 -735.88834522 330.87271445 -731.23217773 325.87109375 C-730.09749511 324.65047489 -728.96498768 323.42783019 -727.8347168 322.203125 C-718.77761058 312.39147308 -709.454435 302.85898389 -700.02368164 293.40820312 C-699.46324158 292.84517487 -698.90280151 292.28214661 -698.32537842 291.70205688 C-692.76041589 286.11680214 -687.20543844 280.56221933 -681.17602539 275.47119141 C-679.37213999 273.90132069 -677.69763776 272.24023548 -676.02368164 270.53320312 C-673.03495827 267.49725388 -669.90661685 264.68811654 -666.67993164 261.90820312 C-664.32405206 259.85961219 -662.01860704 257.76117311 -659.71118164 255.65820312 C-655.41759532 251.7828657 -650.99280162 248.11099003 -646.49633789 244.47460938 C-643.18615899 241.75599989 -639.94893188 238.96213423 -636.71118164 236.15820312 C-630.43821106 230.74708267 -623.9974345 225.59329615 -617.44555664 220.52539062 C-615.38104305 218.92245527 -613.32685688 217.30688254 -611.27368164 215.68945312 C-600.88366782 207.52277925 -590.30107147 199.67990932 -579.52368164 192.03320312 C-578.75894531 191.48728516 -577.99420898 190.94136719 -577.20629883 190.37890625 C-534.76004468 160.10305123 -489.86153757 133.85215351 -443.52368164 110.03320312 C-442.54544434 109.52708496 -441.56720703 109.0209668 -440.55932617 108.49951172 C-412.64845716 94.09668574 -383.79206111 81.41422884 -354.52368164 70.03320312 C-353.58410614 69.66769348 -353.58410614 69.66769348 -352.62554932 69.2947998 C-315.97666356 55.06971736 -278.58027982 42.89697185 -240.52368164 33.03320312 C-239.78347778 32.84111267 -239.04327393 32.64902222 -238.28063965 32.45111084 C-170.53092436 14.93089467 -101.36276702 4.91640036 -31.52368164 1.03320312 C-29.59322998 0.92516357 -29.59322998 0.92516357 -27.6237793 0.81494141 C-18.41828224 0.33326585 -9.21622322 0.12125436 0 0 Z " fill="#D90D0D" transform="translate(2918.523681640625,53.966796875)"/>
<path d="M0 0 C0 0.66 0 1.32 0 2 C0.73605469 2.24878906 1.47210938 2.49757813 2.23046875 2.75390625 C21.3901382 11.37440633 33.38919577 41.87658759 40.59326172 60.4987793 C46.87672939 77.0865845 46.87672939 77.0865845 46 86 C43.57575898 89.86082829 40.21605623 92.78394377 37 96 C36.443125 96.763125 35.88625 97.52625 35.3125 98.3125 C34.879375 98.869375 34.44625 99.42625 34 100 C33.34 100 32.68 100 32 100 C31.773125 100.69480469 31.54625 101.38960937 31.3125 102.10546875 C29.71215643 105.63479787 27.4572877 108.36037413 25 111.3125 C20.1707641 117.24540024 16.05441255 123.43140564 12.17382812 130.02075195 C11.16440444 131.71044852 10.08834612 133.3600264 9 135 C8.34 135 7.68 135 7 135 C6.89042969 135.5671875 6.78085937 136.134375 6.66796875 136.71875 C5.90507142 139.32420053 4.76722512 141.20909429 3.3125 143.5 C-0.16561941 149.1643659 -3.08169212 155.03303798 -6 161 C-6.90010689 162.80919987 -7.80427818 164.61631464 -8.7097168 166.42285156 C-9.61153599 168.22312227 -10.5089275 170.02560876 -11.40625 171.828125 C-12.30566929 173.61814575 -13.21485101 175.4035715 -14.15625 177.171875 C-16.87546284 182.30329279 -18.73930511 187.66747213 -20.640625 193.1484375 C-21.56328269 195.79801644 -22.53441329 198.42248962 -23.546875 201.0390625 C-26.60114045 208.9349043 -29.2077831 216.69920596 -31 225 C-31.66 225 -32.32 225 -33 225 C-33.06058594 225.85464844 -33.12117187 226.70929688 -33.18359375 227.58984375 C-33.26738281 228.69457031 -33.35117187 229.79929687 -33.4375 230.9375 C-33.55931641 232.59072266 -33.55931641 232.59072266 -33.68359375 234.27734375 C-34 237 -34 237 -35 238 C-35.144375 239.03125 -35.28875 240.0625 -35.4375 241.125 C-36 245 -36 245 -36.94140625 248.24609375 C-38.03262251 252.11568352 -38.82086524 255.98050053 -39.5 259.9375 C-39.62745605 260.67331299 -39.75491211 261.40912598 -39.88623047 262.16723633 C-41.79922607 273.46066497 -43.10893215 284.76861296 -43.75390625 296.20703125 C-44 299 -44 299 -45 302 C-45.10152928 303.51594549 -45.14834493 305.03588799 -45.16113281 306.55517578 C-45.17534019 307.95017303 -45.17534019 307.95017303 -45.18983459 309.37335205 C-45.19422043 310.387099 -45.19860626 311.40084595 -45.203125 312.4453125 C-45.21004868 313.50707703 -45.21697235 314.56884155 -45.22410583 315.66278076 C-45.24156485 319.15022388 -45.24771501 322.63751499 -45.25 326.125 C-45.25133942 327.31127991 -45.25267883 328.49755981 -45.25405884 329.7197876 C-45.25012496 345.81312848 -44.88258726 361.8243459 -43.6875 377.875 C-43.62864624 378.69792542 -43.56979248 379.52085083 -43.50915527 380.36871338 C-42.82554573 389.66069602 -41.62957202 398.62982517 -39.67553711 407.73974609 C-38.83981708 411.77306931 -38.33178957 415.7793615 -37.9375 419.875 C-37.40222724 424.84729963 -36.77365264 429.70109058 -35.56640625 434.55859375 C-34.59987392 438.7246814 -33.88595185 442.94388667 -33.14086914 447.15454102 C-32.34552824 451.52972591 -31.26387518 455.73879239 -30 460 C-29.55219054 461.7265255 -29.11454945 463.45572277 -28.6875 465.1875 C-28.43226563 466.21359375 -28.17703125 467.2396875 -27.9140625 468.296875 C-27.42098708 470.29446258 -26.92862423 472.2922296 -26.44042969 474.29101562 C-24.15546089 483.64499127 -21.82872253 492.93455904 -18.90234375 502.11328125 C-18.00731611 504.97659478 -17.20917026 507.85123867 -16.4375 510.75 C-14.68408249 517.27346731 -12.52136419 523.60134805 -10.1875 529.9375 C-8.07926201 535.67255353 -6.16477925 541.46677379 -4.28198242 547.27905273 C-2.7080469 552.07776691 -0.93173297 556.75741497 0.96923828 561.43579102 C2.34794326 564.86557273 3.64249936 568.3247877 4.94140625 571.78540039 C7.64119933 578.97359947 10.37490707 586.07698507 13.6640625 593.01953125 C15.54152512 597.20813937 17.19446396 601.47929815 18.875 605.75 C21.50640418 612.41166577 24.26849541 618.96039467 27.359375 625.42138672 C29.28278119 629.44256193 31.10304092 633.49663275 32.87866211 637.58520508 C36.14140818 645.0836847 39.67263139 652.34049894 43.5715332 659.52807617 C46.43116812 664.83007337 49.02888857 670.22310463 51.5625 675.6875 C54.77969814 682.60740579 58.29406342 689.21678313 62.16015625 695.79296875 C63.94071945 698.89666809 65.55294981 702.03648442 67.125 705.25 C69.37840852 709.85452582 71.88238358 714.20616136 74.56640625 718.5703125 C76.00047992 721.00081337 77.26356413 723.46392387 78.5 726 C80.62249068 730.34702419 83.01840911 734.4555809 85.5390625 738.58203125 C86.86792288 740.78140177 88.13534293 742.99948162 89.375 745.25 C96.89858213 758.90745801 104.84244803 772.30396244 113.05859375 785.5546875 C113.7858388 786.72947268 114.5130521 787.90427752 115.24023438 789.07910156 C116.68609982 791.41471802 118.13743867 793.74681321 119.59179688 796.07714844 C120.59629883 797.6979834 120.59629883 797.6979834 121.62109375 799.3515625 C122.2236499 800.31916504 122.82620605 801.28676758 123.44702148 802.28369141 C124.89002254 804.80763887 125.99882954 807.27505632 127 810 C127.66 810 128.32 810 129 810 C129.40371826 810.85118408 129.80743652 811.70236816 130.22338867 812.5793457 C132.0705172 816.1357725 134.17480339 819.42457163 136.42578125 822.73046875 C137.32264362 824.0615412 138.21928071 825.39276547 139.11572266 826.72412109 C139.58625061 827.4206781 140.05677856 828.11723511 140.54156494 828.8348999 C143.03825981 832.54133459 145.50755554 836.26595763 147.98046875 839.98828125 C149.009597 841.53461744 150.03889505 843.08084065 151.06835938 844.62695312 C152.63531338 846.98045852 154.20192073 849.33419015 155.76733398 851.6887207 C161.42093238 860.1914732 167.0890401 868.67285797 173 877 C177 882.68077932 177 882.68077932 177 885 C177.66 885 178.32 885 179 885 C180.12109375 886.40625 180.12109375 886.40625 181.4375 888.5 C184.36077717 893.03537854 187.37504438 897.49558796 190.4375 901.9375 C190.91219727 902.62859863 191.38689453 903.31969727 191.87597656 904.03173828 C195.14715508 908.78787446 198.47099563 913.50324924 201.85546875 918.1796875 C203 920 203 920 203 922 C203.66 922 204.32 922 205 922 C206.64506719 924.11422711 208.17736477 926.22970819 209.6875 928.4375 C213.22644479 933.52690713 216.85859559 938.45632603 220.8203125 943.23046875 C222 945 222 945 222 948 C222.56976562 948.20625 223.13953125 948.4125 223.7265625 948.625 C226.80403657 950.48629016 228.41343376 953.07105264 230.375 956 C234.45008142 961.89367417 238.71137785 967.60539566 243.125 973.25 C243.72973145 974.0236792 244.33446289 974.7973584 244.95751953 975.59448242 C248.63894202 980.29068827 252.35359327 984.95903119 256.09765625 989.60546875 C258.33147004 992.41723025 260.50926924 995.27020407 262.6875 998.125 C268.15428314 1005.27914119 273.85066231 1012.2413261 279.54589844 1019.21386719 C281.46244706 1021.56804276 283.3582392 1023.93837788 285.25 1026.3125 C292.99880514 1036.01872773 300.95743368 1045.53750473 309 1055 C314.29766718 1061.23297945 319.58642659 1067.46743098 324.75 1073.8125 C328.96080662 1078.98406107 333.32329723 1084.00351415 337.765625 1088.9765625 C338.31734375 1089.60304688 338.8690625 1090.22953125 339.4375 1090.875 C339.93121094 1091.42929688 340.42492187 1091.98359375 340.93359375 1092.5546875 C342 1094 342 1094 342 1096 C342.66 1096 343.32 1096 344 1096 C345.3440093 1097.99284138 346.67541292 1099.99419671 348 1102 C350.3657614 1104.48404947 352.82114504 1106.83081288 355.3125 1109.1875 C357 1111 357 1111 357 1113 C357.66 1113 358.32 1113 359 1113 C360.56432787 1114.69274284 362.05328572 1116.45569852 363.5 1118.25 C364.2940625 1119.22453125 365.088125 1120.1990625 365.90625 1121.203125 C368 1124 368 1124 369.09375 1126.296875 C369.9425407 1128.36359766 369.9425407 1128.36359766 373 1129 C374.75390625 1130.70703125 374.75390625 1130.70703125 376.5625 1132.8125 C377.46162109 1133.84310547 377.46162109 1133.84310547 378.37890625 1134.89453125 C379.89648749 1136.86555845 380.97902958 1138.73964261 382 1141 C382.66 1141 383.32 1141 384 1141 C388 1145.47058824 388 1145.47058824 388 1148 C388.56332031 1148.22816406 389.12664063 1148.45632813 389.70703125 1148.69140625 C392.62731794 1150.35800939 394.45735763 1152.42720751 396.6875 1154.9375 C397.86892578 1156.25041016 397.86892578 1156.25041016 399.07421875 1157.58984375 C401 1160 401 1160 402 1163 C402.99 1163.33 403.98 1163.66 405 1164 C405 1164.66 405 1165.32 405 1166 C405.66 1166 406.32 1166 407 1166 C408.5078125 1167.4609375 408.5078125 1167.4609375 410.125 1169.375 C410.93324219 1170.31472656 410.93324219 1170.31472656 411.7578125 1171.2734375 C413 1173 413 1173 413 1175 C413.9590625 1175.4021875 413.9590625 1175.4021875 414.9375 1175.8125 C417 1177 417 1177 418 1180 C414.993182 1178.66000502 413.00237391 1177.20154709 410.75 1174.8125 C406.22829454 1170.15494931 401.40376179 1165.90064886 396.3125 1161.875 C393.68530737 1159.74484381 391.35930173 1157.42138862 389 1155 C388.1028125 1154.1646875 388.1028125 1154.1646875 387.1875 1153.3125 C386 1152 386 1152 386 1150 C385.12601563 1149.5978125 385.12601563 1149.5978125 384.234375 1149.1875 C381.97213399 1147.98519009 380.19423682 1146.66174087 378.25 1145 C377.63640625 1144.484375 377.0228125 1143.96875 376.390625 1143.4375 C375 1142 375 1142 375 1140 C374.34 1140 373.68 1140 373 1140 C373 1139.34 373 1138.68 373 1138 C372.01 1137.67 371.02 1137.34 370 1137 C370 1136.34 370 1135.68 370 1135 C369.41951904 1134.73952881 368.83903809 1134.47905762 368.2409668 1134.21069336 C364.21189216 1132.03396592 361.12241279 1128.68999982 357.8125 1125.5625 C357.07580078 1124.88123047 356.33910156 1124.19996094 355.58007812 1123.49804688 C354.87947266 1122.83998047 354.17886719 1122.18191406 353.45703125 1121.50390625 C352.81741455 1120.90392822 352.17779785 1120.3039502 351.51879883 1119.68579102 C350 1118 350 1118 349 1115 C348.42507813 1114.71253906 347.85015625 1114.42507813 347.2578125 1114.12890625 C344.18554653 1112.59277326 342.25228923 1110.40349406 339.875 1107.9375 C336.75894235 1104.53546517 336.75894235 1104.53546517 333 1102 C333 1101.34 333 1100.68 333 1100 C332.34 1100 331.68 1100 331 1100 C331 1099.34 331 1098.68 331 1098 C330.01 1097.67 329.02 1097.34 328 1097 C328 1096.34 328 1095.68 328 1095 C327.0409375 1094.5978125 327.0409375 1094.5978125 326.0625 1094.1875 C324 1093 324 1093 323 1090 C322.34 1089.67 321.68 1089.34 321 1089 C319 1088 319 1088 318 1085 C317.15214935 1084.57726807 317.15214935 1084.57726807 316.28717041 1084.14599609 C313.11311513 1082.55562271 310.87790767 1080.15635341 308.40527344 1077.6640625 C307.58509735 1076.84914337 307.58509735 1076.84914337 306.74835205 1076.01776123 C304.94697052 1074.22516477 303.15298232 1072.42537258 301.359375 1070.625 C300.10985071 1069.37682289 298.86002965 1068.12894281 297.60992432 1066.88134766 C294.99417032 1064.26854023 292.38206354 1061.65215399 289.77246094 1059.03320312 C286.42092324 1055.67024761 283.06045611 1052.316381 279.69723129 1048.96511841 C277.11664601 1046.39174416 274.54082354 1043.81364522 271.96643829 1041.23406982 C270.72869085 1039.99498501 269.4894472 1038.75739297 268.24871063 1037.52130127 C266.51998163 1035.79762761 264.79775419 1034.06771477 263.07714844 1032.3359375 C262.30111267 1031.56597443 262.30111267 1031.56597443 261.50939941 1030.78045654 C258 1027.22853184 258 1027.22853184 258 1025 C257.360625 1024.731875 256.72125 1024.46375 256.0625 1024.1875 C254 1023 254 1023 253 1020 C252.01 1019.67 251.02 1019.34 250 1019 C250 1018.34 250 1017.68 250 1017 C249.34 1017 248.68 1017 248 1017 C246.44921875 1015.42578125 246.44921875 1015.42578125 244.6875 1013.3125 C242.56355316 1010.80197706 240.44498656 1008.39176579 238.0625 1006.125 C236 1004 236 1004 236 1002 C235.443125 1001.773125 234.88625 1001.54625 234.3125 1001.3125 C228.96445622 998.2771238 224.86953982 992.79942729 220.6875 988.3125 C220.13771484 987.73177734 219.58792969 987.15105469 219.02148438 986.55273438 C215 982.23151203 215 982.23151203 215 980 C214.01 979.67 213.02 979.34 212 979 C210.4921875 977.46875 210.4921875 977.46875 208.875 975.5 C206.20785079 972.34893765 203.44435078 969.39410589 200.5 966.5 C197.16245324 963.2017846 194.01988646 959.81981394 190.97265625 956.25390625 C189.38324235 954.43788284 187.76848421 952.66500351 186.12109375 950.90234375 C185.61690918 950.36134033 185.11272461 949.82033691 184.59326172 949.26293945 C183.58450888 948.18355783 182.57189244 947.10777217 181.55517578 946.03588867 C178 942.22126097 178 942.22126097 178 940 C177.34 940 176.68 940 176 940 C174.54597658 938.3623728 173.16151322 936.66265804 171.8125 934.9375 C168.61165454 930.93260217 165.35504006 927.22881464 161.67578125 923.66796875 C159.25235266 921.2558382 157.03986617 918.67891486 154.80859375 916.08984375 C152.94032924 913.93104998 151.03505144 911.80935912 149.125 909.6875 C146.12491529 906.32763724 143.26352832 902.88234584 140.4375 899.375 C137.89307101 896.23367586 135.34488367 893.24576832 132.4375 890.4375 C129.05049701 887.15875737 126.20295422 883.5730017 123.296875 879.8671875 C120.62550906 876.53252322 117.85474583 873.29594959 115.0625 870.0625 C110.79184899 865.10867735 106.59127735 860.10972572 102.46875 855.03125 C100.56158225 852.6895377 98.64475202 850.35740313 96.71875 848.03125 C91.00516299 841.12909872 85.31296182 834.21198144 79.75 827.1875 C79.29641113 826.61926514 78.84282227 826.05103027 78.37548828 825.46557617 C76.24848753 822.76068416 74.37841475 820.16269606 73 817 C72.34 817 71.68 817 71 817 C69.7469687 815.44648157 68.57357053 813.82849077 67.4375 812.1875 C63.86759067 807.14953013 60.08730693 802.36886923 56.15234375 797.61328125 C49.83828559 789.94702915 43.94308491 781.95428115 38 774 C37.54608887 773.39647705 37.09217773 772.7929541 36.62451172 772.17114258 C32.79516342 767.07903162 29.01845176 761.94977101 25.25 756.8125 C21.1543787 751.23305171 17.01946437 745.69742606 12.75 740.25 C7.87936439 733.9751449 3.52376539 727.41516016 -0.81103516 720.76660156 C-2.09007199 718.86616819 -3.43620815 717.02526343 -4.79296875 715.1796875 C-7 712 -7 712 -7 710 C-7.66 710 -8.32 710 -9 710 C-10.4453125 708.015625 -10.4453125 708.015625 -12.125 705.25 C-14.62725633 701.20511553 -17.16540843 697.20184461 -19.8125 693.25 C-20.48152344 692.25097656 -21.15054688 691.25195312 -21.83984375 690.22265625 C-22.55269531 689.15917969 -23.26554688 688.09570312 -24 687 C-26.05317709 683.92409533 -28.10404835 680.84665402 -30.15209961 677.76733398 C-32.23344515 674.63997889 -34.32309022 671.51917558 -36.4375 668.4140625 C-41.6959382 660.66272725 -46.6096891 652.75343354 -51.38916016 644.69799805 C-54.91046738 638.77446699 -58.54278743 632.93374971 -62.25 627.125 C-66.46557072 620.51462054 -70.47453444 613.83422636 -74.28125 606.98046875 C-75.45835368 604.93926395 -76.71371105 602.94178611 -78.03125 600.98828125 C-79.95540436 598.06768981 -81.4900392 595.15122254 -83 592 C-84.54711624 588.84388287 -86.04861672 585.92707492 -88 583 C-89.90255464 580.14616804 -91.36788666 577.3266977 -92.875 574.25 C-94.72890778 570.46802812 -96.65170737 566.82660119 -98.875 563.25 C-105.09364365 553.09612092 -109.97524046 542.13870052 -114.99731445 531.359375 C-117.2659771 526.5059564 -119.6367338 521.71403287 -122.0625 516.9375 C-125.11926661 510.90763194 -127.92308727 504.79993541 -130.56665039 498.57788086 C-131.92274125 495.39751995 -133.34270804 492.28734824 -134.921875 489.2109375 C-137.40820769 484.30251229 -139.44439947 479.22541497 -141.5 474.125 C-141.87769531 473.19558594 -142.25539063 472.26617188 -142.64453125 471.30859375 C-143.76779544 468.54096343 -144.88505785 465.77099224 -146 463 C-146.49197876 461.77941895 -146.49197876 461.77941895 -146.99389648 460.53417969 C-149.73544545 453.7096047 -152.40875988 446.85914239 -155.0625 440 C-155.49626953 438.88882812 -155.93003906 437.77765625 -156.37695312 436.6328125 C-158.57934593 430.93407921 -160.56983757 425.26357577 -162.25219727 419.39160156 C-163.03848907 416.87690535 -163.98441897 414.48078507 -164.9921875 412.046875 C-167.1144023 406.88167477 -168.65311486 401.63133667 -170.125 396.25 C-170.62640382 394.44237495 -171.12897714 392.63507382 -171.6328125 390.828125 C-171.86701904 389.98725342 -172.10122559 389.14638184 -172.3425293 388.2800293 C-173.14659226 385.49163569 -174.08004073 382.75198116 -175 380 C-175.49817246 378.06729952 -175.97732414 376.12959812 -176.4375 374.1875 C-177.32398751 370.52905156 -178.30880823 367.02482576 -179.625 363.5 C-181.50997587 358.1411419 -181.72343941 352.63611407 -182 347 C-182.66 347 -183.32 347 -184 347 C-184.18175781 345.94683594 -184.36351562 344.89367188 -184.55078125 343.80859375 C-184.80425047 342.35148641 -185.05819399 340.89446153 -185.3125 339.4375 C-185.51552734 338.27275146 -185.51552734 338.27275146 -185.72265625 337.08447266 C-186.56144024 332.32650928 -187.49303202 327.60082328 -188.5 322.875 C-190.07577046 315.19519241 -191.05291115 307.45924972 -191.99804688 299.67919922 C-192.11470703 298.72803223 -192.23136719 297.77686523 -192.3515625 296.796875 C-192.45291504 295.94448242 -192.55426758 295.09208984 -192.65869141 294.21386719 C-192.96224566 291.83328625 -192.96224566 291.83328625 -194 289 C-194.20685057 286.87331757 -194.36667812 284.74192995 -194.5 282.609375 C-194.5825 281.34222656 -194.665 280.07507812 -194.75 278.76953125 C-194.83367761 277.42970896 -194.91700812 276.08986494 -195 274.75 C-195.16421823 272.14046977 -195.33081093 269.53108766 -195.5 266.921875 C-195.5721875 265.76268555 -195.644375 264.60349609 -195.71875 263.40917969 C-195.95661068 260.00788049 -195.95661068 260.00788049 -196.52294922 256.69848633 C-197.11892576 252.07799065 -197.14319191 247.55559929 -197.1328125 242.90234375 C-197.13376923 241.94985245 -197.13472595 240.99736115 -197.13571167 240.01600647 C-197.13638931 238.01156549 -197.13456414 236.00712226 -197.13037109 234.00268555 C-197.12501103 230.94379735 -197.13033328 227.88505558 -197.13671875 224.82617188 C-197.13605801 222.87239551 -197.13477694 220.91861924 -197.1328125 218.96484375 C-197.13483673 218.05532455 -197.13686096 217.14580536 -197.13894653 216.20872498 C-197.12229529 211.67705861 -196.84022713 207.46752949 -196 203 C-195.87469117 201.22446272 -195.77890749 199.44662414 -195.7109375 197.66796875 C-194.51882911 173.45054271 -189.98781653 148.94582365 -182 126 C-181.58911133 124.80455566 -181.58911133 124.80455566 -181.16992188 123.58496094 C-174.39940335 104.17272909 -166.0230367 87.29213112 -152.49267578 71.73242188 C-150.38834473 69.29010373 -148.38654333 66.76892725 -146.375 64.25 C-141.91971261 58.81097214 -137.1820197 53.65503376 -132.39404297 48.51171875 C-131.02980542 47.03232139 -129.68841834 45.53195572 -128.34765625 44.03125 C-106.38438736 19.52011291 -75.95863417 -7.24908147 -41.875 -10.875 C-26.04817383 -11.56032941 -13.5288105 -8.21516917 0 0 Z " fill="#DA1F1E" transform="translate(403,951)"/>
<path d="M0 0 C0.99 0.495 0.99 0.495 2 1 C-19.78 22.78 -41.56 44.56 -64 67 C-64 64 -64 64 -61.40234375 61.14453125 C-60.25474837 60.02625887 -59.09942134 58.91587984 -57.9375 57.8125 C-54.46879672 54.47919961 -51.08380835 51.15433855 -47.96875 47.484375 C-42.80003855 41.49034053 -37.12366656 35.97501675 -31.52124023 30.39086914 C-29.56704376 28.4420313 -27.61824853 26.48790728 -25.66992188 24.53320312 C-20.09353485 18.95410146 -14.53922424 13.41105064 -8.52319336 8.30053711 C-6.5856401 6.6462101 -4.78227974 4.88191057 -3 3.0625 C-2.4225 2.47597656 -1.845 1.88945312 -1.25 1.28515625 C-0.8375 0.86105469 -0.425 0.43695313 0 0 Z " fill="#F92E2E" transform="translate(2246,321)"/>
<path d="M0 0 C0.45890625 0.39832031 0.9178125 0.79664062 1.390625 1.20703125 C5.31674827 4.60015709 5.31674827 4.60015709 9.4375 7.75 C9.953125 8.1625 10.46875 8.575 11 9 C11 9.66 11 10.32 11 11 C11.66 11 12.32 11 13 11 C13 11.66 13 12.32 13 13 C13.66 13 14.32 13 15 13 C16.5078125 14.53125 16.5078125 14.53125 18.125 16.5 C18.93324219 17.47453125 18.93324219 17.47453125 19.7578125 18.46875 C20.16773438 18.9740625 20.57765625 19.479375 21 20 C20.67 20.66 20.34 21.32 20 22 C18 20.625 18 20.625 16 19 C16 18.34 16 17.68 16 17 C15.41605469 16.72929687 14.83210937 16.45859375 14.23046875 16.1796875 C12.01116915 15.00590733 10.23438838 13.73421674 8.3125 12.125 C7.71050781 11.63257812 7.10851562 11.14015625 6.48828125 10.6328125 C4.78097293 8.75970259 4.54450048 7.43008546 4 5 C2.0162233 3.71563266 2.0162233 3.71563266 0 3 C0 2.01 0 1.02 0 0 Z " fill="#C61010" transform="translate(821,2130)"/>
<path d="M0 0 C1.1725131 0.95117134 2.33787015 1.91117009 3.5 2.875 C4.47453125 3.67550781 4.47453125 3.67550781 5.46875 4.4921875 C5.9740625 4.98976563 6.479375 5.48734375 7 6 C7 6.66 7 7.32 7 8 C6.01 7.67 5.02 7.34 4 7 C4 6.34 4 5.68 4 5 C2.68 4.34 1.36 3.68 0 3 C0 2.01 0 1.02 0 0 Z " fill="#C81919" transform="translate(821,2130)"/>
</svg>
